<svg viewBox="0 0 24 24" xmlns="http://www.w3.org/2000/svg">
  <path d="m12 19c-6.519 0-11.676-6.416-11.892-6.689-.144-.182-.144-.439 0-.621.216-.274 5.373-6.69 11.892-6.69s11.676 6.416 11.892 6.689c.144.182.144.439 0 .621-.216.274-5.373 6.69-11.892 6.69zm-10.845-7c1.111 1.271 5.598 6 10.845 6s9.734-4.729 10.845-6c-1.111-1.271-5.598-6-10.845-6s-9.734 4.729-10.845 6z" fill="white"/>
  <path d="m12 16.5c-2.481 0-4.5-2.019-4.5-4.5s2.019-4.5 4.5-4.5 4.5 2.019 4.5 4.5-2.019 4.5-4.5 4.5zm0-8c-1.93 0-3.5 1.57-3.5 3.5s1.57 3.5 3.5 3.5 3.5-1.57 3.5-3.5-1.57-3.5-3.5-3.5z" fill="white"/>
</svg>
